<svg fill="#000000" xmlns="http://www.w3.org/2000/svg"  viewBox="0 0 64 64" width="64px" height="64px"><polygon points="40.4,12 23.6,12 10,14 10,17 54,17 54,14"/><path d="M24,10v3h4v-3h8v3h4v-3c0-2.209-1.791-4-4-4h-8C25.791,6,24,7.791,24,10z"/><path d="M12,19l2.702,33.323C14.87,54.4,16.605,56,18.689,56h26.623c2.084,0,3.818-1.599,3.987-3.676L51.923,20L12,19z M35,51h-6V29	c0-1.657,1.343-3,3-3s3,1.343,3,3V51z M45,51h-3V28c0-1.105,0.895-2,2-2s2,0.895,2,2L45,51z M18,28c0-1.105,0.895-2,2-2s2,0.895,2,2	v23h-3L18,28z"/></svg>