<svg fill="#000000" xmlns="http://www.w3.org/2000/svg"  viewBox="0 0 50 50" width="50px" height="50px"><path fill="none" stroke="#000000" stroke-miterlimit="10" stroke-width="2" d="M21,26.545l-9.448-9.586	c-0.69-0.7-1.809-0.7-2.499,0L2.518,23.59c-0.69,0.7-0.69,1.835,0,2.535l17.076,17.326c0.69,0.7,1.809,0.7,2.499,0l6.536-6.631"/><path fill="none" stroke="#000000" stroke-miterlimit="10" stroke-width="2" d="M19.646,43.494l-6.628-6.725	c-0.665-0.674-0.665-1.767,0-2.442l25.45-25.822c0.665-0.674,1.742-0.674,2.406,0l6.628,6.725c0.665,0.674,0.665,1.767,0,2.442	l-25.45,25.822C21.388,44.169,20.31,44.169,19.646,43.494z"/><path fill="none" stroke="#000000" stroke-miterlimit="10" stroke-width="2" d="M19.646,43.494l-6.628-6.725	c-0.665-0.674-0.665-1.767,0-2.442l25.45-25.822c0.665-0.674,1.742-0.674,2.406,0l6.628,6.725c0.665,0.674,0.665,1.767,0,2.442	l-25.45,25.822C21.388,44.169,20.31,44.169,19.646,43.494z"/></svg>